# Rhino

mtllib Mask.mtl
g Default
usemtl diffuse_Black
v -0.65394645929336548 1.6371383666992188 0.53811687231063843
v -0.65394645929336548 1.8086593151092529 0.62710171937942505
v -0.65394645929336548 1.988278865814209 0.65994888544082642
v -0.65394645929336548 2.1696155071258545 0.63049119710922241
v -0.65394645929336548 2.3509519100189209 0.53811687231063843
v -0.52129501104354858 1.6371383666992188 0.63528686761856079
v -0.52129501104354858 1.8086593151092529 0.71608203649520874
v -0.52129501104354858 1.988278865814209 0.74590617418289185
v -0.52129501104354858 2.1696155071258545 0.71915960311889648
v -0.52129501104354858 2.3509519100189209 0.63528686761856079
v -0.3804151713848114 1.6371383666992188 0.71089541912078857
v -0.3804151713848114 1.8086593151092529 0.78531813621520996
v -0.3804151713848114 1.988278865814209 0.81278997659683228
v -0.3804151713848114 2.1696155071258545 0.78815299272537231
v -0.3804151713848114 2.3509519100189209 0.71089541912078857
v -0.23680585622787476 1.6371383666992188 0.75871866941452026
v -0.23680585622787476 1.8086593151092529 0.82911080121994019
v -0.23680585622787476 1.988278865814209 0.8550947904586792
v -0.23680585622787476 2.1696155071258545 0.83179205656051636
v -0.23680585622787476 2.3509519100189209 0.75871866941452026
v -0.079568244516849518 1.6371383666992188 0.77721285820007324
v -0.079568244516849518 1.8086593151092529 0.84604626893997192
v -0.079568244516849518 1.988278865814209 0.87145489454269409
v -0.079568244516849518 2.1696155071258545 0.84866821765899658
v -0.079568244516849518 2.3509519100189209 0.77721285820007324
v 0.077532373368740082 1.6371383666992188 0.76033562421798706
v 0.077532373368740082 1.8086593151092529 0.83059149980545044
v 0.077532373368740082 1.988278865814209 0.85652518272399902
v 0.077532373368740082 2.1696155071258545 0.83326756954193115
v 0.077532373368740082 2.3509519100189209 0.76033562421798706
v 0.22824119031429291 1.6371383666992188 0.71093267202377319
v 0.22824119031429291 1.8086593151092529 0.78535228967666626
v 0.22824119031429291 1.988278865814209 0.81282299757003784
v 0.22824119031429291 2.1696155071258545 0.78818702697753906
v 0.22824119031429291 2.3509519100189209 0.71093267202377319
v 0.36504963040351868 1.6371383666992188 0.63792479038238525
v 0.36504963040351868 1.8086593151092529 0.718497633934021
v 0.36504963040351868 1.988278865814209 0.74823969602584839
v 0.36504963040351868 2.1696155071258545 0.72156673669815063
v 0.36504963040351868 2.3509519100189209 0.63792479038238525
v 0.50185805559158325 1.6371383666992188 0.53811687231063843
v 0.50185805559158325 1.8086593151092529 0.62710171937942505
v 0.50185805559158325 1.988278865814209 0.65994888544082642
v 0.50185805559158325 2.1696155071258545 0.63049119710922241
v 0.50185805559158325 2.3509519100189209 0.53811687231063843
vt 0 0
vt 0 0.2402881383895874
vt 0 0.4919218122959137
vt 0 0.74596089124679565
vt 0 1
vt 0.11476980894804001 0
vt 0.11476980894804001 0.2402881383895874
vt 0.11476980894804001 0.4919218122959137
vt 0.11476980894804001 0.74596089124679565
vt 0.11476980894804001 1
vt 0.23665878176689148 0
vt 0.23665878176689148 0.2402881383895874
vt 0.23665878176689148 0.4919218122959137
vt 0.23665878176689148 0.74596089124679565
vt 0.23665878176689148 1
vt 0.36090931296348572 0
vt 0.36090931296348572 0.2402881383895874
vt 0.36090931296348572 0.4919218122959137
vt 0.36090931296348572 0.74596089124679565
vt 0.36090931296348572 1
vt 0.49695101380348206 0
vt 0.49695101380348206 0.2402881383895874
vt 0.49695101380348206 0.4919218122959137
vt 0.49695101380348206 0.74596089124679565
vt 0.49695101380348206 1
vt 0.63287419080734253 0
vt 0.63287419080734253 0.2402881383895874
vt 0.63287419080734253 0.4919218122959137
vt 0.63287419080734253 0.74596089124679565
vt 0.63287419080734253 1
vt 0.7632671594619751 0
vt 0.7632671594619751 0.2402881383895874
vt 0.7632671594619751 0.4919218122959137
vt 0.7632671594619751 0.74596089124679565
vt 0.7632671594619751 1
vt 0.88163357973098755 0
vt 0.88163357973098755 0.2402881383895874
vt 0.88163357973098755 0.4919218122959137
vt 0.88163357973098755 0.74596089124679565
vt 0.88163357973098755 1
vt 1 0
vt 1 0.2402881383895874
vt 1 0.4919218122959137
vt 1 0.74596089124679565
vt 1 1
vn -0.56420344114303589 -0.46560919284820557 0.68182295560836792
vn -0.58116716146469116 -0.27204880118370056 0.76696425676345825
vn -0.59064340591430664 -0.0089023662731051445 0.80688357353210449
vn -0.58204543590545654 0.25894179940223694 0.77082568407058716
vn -0.56420344114303589 0.46560919284820557 0.68182295560836792
vn -0.47640508413314819 -0.4633202850818634 0.74724328517913818
vn -0.48574408888816833 -0.26796147227287292 0.83201521635055542
vn -0.49122244119644165 -0.0087252398952841759 0.87099045515060425
vn -0.48624730110168457 0.25493037700653076 0.8358074426651001
vn -0.47640508413314819 0.4633202850818634 0.74724328517913818
vn -0.35395103693008423 -0.46384179592132568 0.81213879585266113
vn -0.35734862089157104 -0.26563099026679993 0.8954005241394043
vn -0.35971274971961975 -0.0086094783619046211 0.93302339315414429
vn -0.35755905508995056 0.25260034203529358 0.89907985925674438
vn -0.35395103693008423 0.46384179592132568 0.81213879585266113
vn -0.19850057363510132 -0.46583014726638794 0.86232233047485352
vn -0.19889865815639496 -0.26476320624351501 0.94357818365097046
vn -0.19952818751335144 -0.0085519338026642799 0.9798547625541687
vn -0.1989491730928421 0.25169083476066589 0.94713830947875977
vn -0.19850057363510132 0.46583014726638794 0.86232233047485352
vn -0.0044617312960326672 -0.46707510948181152 0.88420635461807251
vn -0.0044560031965374947 -0.26459932327270508 0.96434813737869263
vn -0.0044635464437305927 -0.0085340980440378189 0.99995362758636475
vn -0.0044564930722117424 0.25149884819984436 0.96784734725952148
vn -0.0044617312960326672 0.46707510948181152 0.88420635461807251
vn 0.19003619253635406 -0.46592706441879272 0.86417484283447266
vn 0.19036431610584259 -0.26474460959434509 0.94534212350845337
vn 0.19094297289848328 -0.008550264872610569 0.98156386613845825
vn 0.19041033089160919 0.25167009234428406 0.94889730215072632
vn 0.19003619253635406 0.46592706441879272 0.86417484283447266
vn 0.35386720299720764 -0.46384277939796448 0.81217479705810547
vn 0.35726204514503479 -0.2656300961971283 0.89543533325195313
vn 0.3596247136592865 -0.0086094271391630173 0.93305730819702148
vn 0.35747236013412476 0.25259944796562195 0.89911460876464844
vn 0.35386720299720764 0.46384277939796448 0.81217479705810547
vn 0.47323623299598694 -0.46329748630523682 0.74926823377609253
vn 0.48236322402954102 -0.26786506175994873 0.8340107798576355
vn 0.48773124814033508 -0.00872080959379673 0.87295025587081909
vn 0.48285609483718872 0.25483500957489014 0.83780014514923096
vn 0.47323623299598694 0.46329748630523682 0.74926823377609253
vn 0.56420344114303589 -0.46560919284820557 0.68182295560836792
vn 0.58116716146469116 -0.27204880118370056 0.76696425676345825
vn 0.59064340591430664 -0.0089023662731051445 0.80688357353210449
vn 0.58204543590545654 0.25894179940223694 0.77082568407058716
vn 0.56420344114303589 0.46560919284820557 0.68182295560836792
f 7/7/7 2/2/2 1/1/1 6/6/6
f 8/8/8 3/3/3 2/2/2 7/7/7
f 9/9/9 4/4/4 3/3/3 8/8/8
f 10/10/10 5/5/5 4/4/4 9/9/9
f 12/12/12 7/7/7 6/6/6 11/11/11
f 13/13/13 8/8/8 7/7/7 12/12/12
f 14/14/14 9/9/9 8/8/8 13/13/13
f 15/15/15 10/10/10 9/9/9 14/14/14
f 17/17/17 12/12/12 11/11/11 16/16/16
f 18/18/18 13/13/13 12/12/12 17/17/17
f 19/19/19 14/14/14 13/13/13 18/18/18
f 20/20/20 15/15/15 14/14/14 19/19/19
f 22/22/22 17/17/17 16/16/16 21/21/21
f 23/23/23 18/18/18 17/17/17 22/22/22
f 24/24/24 19/19/19 18/18/18 23/23/23
f 25/25/25 20/20/20 19/19/19 24/24/24
f 27/27/27 22/22/22 21/21/21 26/26/26
f 28/28/28 23/23/23 22/22/22 27/27/27
f 29/29/29 24/24/24 23/23/23 28/28/28
f 30/30/30 25/25/25 24/24/24 29/29/29
f 32/32/32 27/27/27 26/26/26 31/31/31
f 33/33/33 28/28/28 27/27/27 32/32/32
f 34/34/34 29/29/29 28/28/28 33/33/33
f 35/35/35 30/30/30 29/29/29 34/34/34
f 37/37/37 32/32/32 31/31/31 36/36/36
f 38/38/38 33/33/33 32/32/32 37/37/37
f 39/39/39 34/34/34 33/33/33 38/38/38
f 40/40/40 35/35/35 34/34/34 39/39/39
f 42/42/42 37/37/37 36/36/36 41/41/41
f 43/43/43 38/38/38 37/37/37 42/42/42
f 44/44/44 39/39/39 38/38/38 43/43/43
f 45/45/45 40/40/40 39/39/39 44/44/44
