# Rhino

mtllib 1110_Funicular.mtl
g Funicular_PlatForm
o object_1
usemtl diffuse_0
v -3.17946457862854 6.1607160568237305 12.321270942687988
v 3.179452657699585 0.5820000171661377 -3.0353064630617155E-06
v 3.179452657699585 6.1607160568237305 12.321270942687988
v 1.0598238706588745 6.1607160568237305 12.321270942687988
v -1.0598355531692505 6.1607160568237305 12.321270942687988
v -3.17946457862854 4.3011436462402344 8.2141847610473633
v -3.17946457862854 2.4415719509124756 4.1070833206176758
v -3.17946457862854 0.5820000171661377 -3.0353064630617155E-06
v -1.0598355531692505 0.5820000171661377 -3.0353064630617155E-06
v 1.0598238706588745 0.5820000171661377 -3.0353064630617155E-06
v 3.179452657699585 2.4415719509124756 4.1070985794067383
v 3.179452657699585 4.3011436462402344 8.2141847610473633
v -3.17946457862854 6.1607160568237305 12.321270942687988
v -3.17946457862854 5.5787158012390137 12.321270942687988
v 3.179452657699585 5.5787158012390137 12.321270942687988
v 3.179452657699585 6.1607160568237305 12.321270942687988
v 1.0598238706588745 6.1607160568237305 12.321270942687988
v -1.0598355531692505 6.1607160568237305 12.321270942687988
v -1.0598355531692505 5.5787158012390137 12.321270942687988
v 1.0598238706588745 5.5787158012390137 12.321270942687988
v -3.17946457862854 5.5787158012390137 12.321270942687988
v 3.179452657699585 5.5787158012390137 12.321270942687988
v -3.17946457862854 1.588649212180826E-10 -3.0353064630617155E-06
v 3.179452657699585 1.588649212180826E-10 -3.0353064630617155E-06
v 1.0598238706588745 5.5787158012390137 12.321270942687988
v -1.0598355531692505 5.5787158012390137 12.321270942687988
v -3.17946457862854 3.7191441059112549 8.2141847610473633
v -3.17946457862854 1.8595720529556274 4.1070833206176758
v -1.0598355531692505 1.588649212180826E-10 -3.0353064630617155E-06
v 1.0598238706588745 1.588649212180826E-10 -3.0353064630617155E-06
v 3.179452657699585 1.8595720529556274 4.1070985794067383
v 3.179452657699585 3.7191441059112549 8.2141847610473633
v -3.17946457862854 1.588649212180826E-10 -3.0353064630617155E-06
v 3.179452657699585 1.588649212180826E-10 -3.0353064630617155E-06
v -3.17946457862854 0.5820000171661377 -3.0353064630617155E-06
v 3.179452657699585 0.5820000171661377 -3.0353064630617155E-06
v -1.0598355531692505 0.5820000171661377 -3.0353064630617155E-06
v 1.0598238706588745 0.5820000171661377 -3.0353064630617155E-06
v 1.0598238706588745 1.588649212180826E-10 -3.0353064630617155E-06
v -1.0598355531692505 1.588649212180826E-10 -3.0353064630617155E-06
v 3.179452657699585 6.1607160568237305 12.321270942687988
v 3.179452657699585 1.588649212180826E-10 -3.0353064630617155E-06
v 3.179452657699585 0.5820000171661377 -3.0353064630617155E-06
v 3.179452657699585 2.4415719509124756 4.1070985794067383
v 3.179452657699585 4.3011436462402344 8.2141847610473633
v 3.179452657699585 5.5787158012390137 12.321270942687988
v 3.179452657699585 3.7191441059112549 8.2141847610473633
v 3.179452657699585 1.8595720529556274 4.1070985794067383
v -3.17946457862854 6.1607160568237305 12.321270942687988
v -3.17946457862854 1.588649212180826E-10 -3.0353064630617155E-06
v -3.17946457862854 0.5820000171661377 -3.0353064630617155E-06
v -3.17946457862854 2.4415719509124756 4.1070833206176758
v -3.17946457862854 4.3011436462402344 8.2141847610473633
v -3.17946457862854 5.5787158012390137 12.321270942687988
v -3.17946457862854 3.7191441059112549 8.2141847610473633
v -3.17946457862854 1.8595720529556274 4.1070833206176758
vt 0.31979653239250183 0.67818653583526611
vt 0.99853515625 0.99651831388473511
vt 0.31979653239250183 0.99651819467544556
vt 0.31979653239250183 0.89040768146514893
vt 0.31979653239250183 0.78429710865020752
vt 0.54604274034500122 0.67818653583526611
vt 0.772288978099823 0.67818659543991089
vt 0.99853515625 0.67818659543991089
vt 0.99853515625 0.78429716825485229
vt 0.99853515625 0.8904077410697937
vt 0.77228891849517822 0.99651825428009033
vt 0.54604274034500122 0.99651825428009033
vt 0.63959306478500366 0.029269304126501083
vt 0.63959306478500366 0.057073764503002167
vt 0.31979653239250183 0.057073764503002167
vt 0.31979653239250183 0.029269304126501083
vt 0.42639535665512085 0.029269304126501083
vt 0.53299421072006226 0.029269304126501083
vt 0.53299421072006226 0.057073764503002167
vt 0.42639535665512085 0.057073764503002167
vt 0.31833168864250183 0
vt 0 0
vt 0.31833168864250183 0.68020343780517578
vt 0 0.68020343780517578
vt 0.10611055791378021 0
vt 0.21222111582756042 0
vt 0.31833168864250183 0.22673448920249939
vt 0.31833168864250183 0.45346897840499878
vt 0.21222111582756042 0.68020343780517578
vt 0.10611055791378021 0.68020343780517578
vt 0 0.45346897840499878
vt 0 0.22673448920249939
vt 0.63959306478500366 0
vt 0.31979653239250183 0
vt 0.63959306478500366 0.027804460376501083
vt 0.31979653239250183 0.027804460376501083
vt 0.53299421072006226 0.027804460376501083
vt 0.42639535665512085 0.027804460376501083
vt 0.42639535665512085 0
vt 0.53299421072006226 0
vt 0.65989828109741211 0.058538608253002167
vt 0.96972620487213135 0.67672169208526611
vt 0.94045692682266235 0.67672169208526611
vt 0.84693735837936401 0.47066065669059753
vt 0.75341778993606567 0.26459965109825134
vt 0.6891675591468811 0.058538608253002167
vt 0.78268712759017944 0.26459965109825134
vt 0.87620669603347778 0.47066065669059753
vt 0.31979653239250183 0.058538608253002167
vt 0.62962448596954346 0.67672169208526611
vt 0.60035520792007446 0.67672169208526611
vt 0.50683563947677612 0.47066065669059753
vt 0.41331607103347778 0.26459965109825134
vt 0.34906584024429321 0.058538608253002167
vt 0.44258537888526917 0.26459965109825134
vt 0.53610491752624512 0.47066065669059753
vn 6.0032810722532304E-08 0.91097438335418701 -0.41246289014816284
vn 6.0032810722532304E-08 0.91097438335418701 -0.41246289014816284
vn 6.0032810722532304E-08 0.91097438335418701 -0.41246289014816284
vn 6.0032810722532304E-08 0.91097438335418701 -0.41246289014816284
vn 6.0032810722532304E-08 0.91097438335418701 -0.41246289014816284
vn 6.0032810722532304E-08 0.91097438335418701 -0.41246289014816284
vn 6.0032810722532304E-08 0.91097438335418701 -0.41246289014816284
vn 6.0032810722532304E-08 0.91097438335418701 -0.41246289014816284
vn 6.0032810722532304E-08 0.91097438335418701 -0.41246289014816284
vn 6.0032810722532304E-08 0.91097438335418701 -0.41246289014816284
vn 6.0032810722532304E-08 0.91097438335418701 -0.41246289014816284
vn 6.0032810722532304E-08 0.91097438335418701 -0.41246289014816284
vn -1.455471760891669E-07 0 1
vn -1.4554719030002161E-07 0 1
vn -1.4554719030002161E-07 0 1
vn -1.455471760891669E-07 0 1
vn -1.455471760891669E-07 0 1
vn -1.455471760891669E-07 0 1
vn -1.4554719030002161E-07 0 1
vn -1.4554719030002161E-07 0 1
vn -6.0032810722532304E-08 -0.91097438335418701 0.41246289014816284
vn -6.0032810722532304E-08 -0.91097438335418701 0.41246289014816284
vn -6.0032810722532304E-08 -0.91097438335418701 0.41246289014816284
vn -6.0032810722532304E-08 -0.91097438335418701 0.41246289014816284
vn -6.0032810722532304E-08 -0.91097438335418701 0.41246289014816284
vn -6.0032810722532304E-08 -0.91097438335418701 0.41246289014816284
vn -6.0032810722532304E-08 -0.91097438335418701 0.41246289014816284
vn -6.0032810722532304E-08 -0.91097438335418701 0.41246289014816284
vn -6.0032810722532304E-08 -0.91097438335418701 0.41246289014816284
vn -6.0032810722532304E-08 -0.91097438335418701 0.41246289014816284
vn -6.0032810722532304E-08 -0.91097438335418701 0.41246289014816284
vn -6.0032810722532304E-08 -0.91097438335418701 0.41246289014816284
vn 1.4554719030002161E-07 0 -1
vn 1.4554719030002161E-07 0 -1
vn 1.4554719030002161E-07 0 -1
vn 1.4554719030002161E-07 0 -1
vn 1.4554719030002161E-07 0 -1
vn 1.4554719030002161E-07 0 -1
vn 1.4554719030002161E-07 0 -1
vn 1.4554719030002161E-07 0 -1
vn 1 0 1.4554719030002161E-07
vn 1 0 1.4554719030002161E-07
vn 1 0 1.4554719030002161E-07
vn 1 0 1.4554719030002161E-07
vn 1 0 1.4554719030002161E-07
vn 1 0 1.4554719030002161E-07
vn 1 0 1.4554719030002161E-07
vn 1 0 1.4554719030002161E-07
vn -1 0 -1.4554719030002161E-07
vn -1 0 -1.4554719030002161E-07
vn -1 0 -1.4554719030002161E-07
vn -1 0 -1.4554719030002161E-07
vn -1 0 -1.4554719030002161E-07
vn -1 0 -1.4554719030002161E-07
vn -1 0 -1.4554719030002161E-07
vn -1 0 -1.4554719030002161E-07
f 9/9/9 8/8/8 7/7/7 6/6/6 1/1/1 5/5/5 4/4/4 3/3/3 12/12/12 11/11/11 2/2/2 10/10/10
f 18/18/18 13/13/13 14/14/14 19/19/19 20/20/20 15/15/15 16/16/16 17/17/17
f 26/26/26 21/21/21 27/27/27 28/28/28 23/23/23 29/29/29 30/30/30 24/24/24 31/31/31 32/32/32 22/22/22 25/25/25
f 40/40/40 33/33/33 35/35/35 37/37/37 38/38/38 36/36/36 34/34/34 39/39/39
f 46/46/46 47/47/47 48/48/48 42/42/42 43/43/43 44/44/44 45/45/45 41/41/41
f 53/53/53 52/52/52 51/51/51 50/50/50 56/56/56 55/55/55 54/54/54 49/49/49
g Funicular
o object_2
usemtl diffuse_0
v -3.17946457862854 12.932726860046387 12.321270942687988
v 3.179452657699585 12.932726860046387 12.321270942687988
v -3.17946457862854 5.5787158012390137 12.321270942687988
v 3.179452657699585 5.5787158012390137 12.321270942687988
v -3.17946457862854 5.5787158012390137 12.321270942687988
v 3.179452657699585 5.5787158012390137 12.321270942687988
v -3.17946457862854 1.588649212180826E-10 -3.0353064630617155E-06
v 3.179452657699585 1.588649212180826E-10 -3.0353064630617155E-06
v -3.17946457862854 1.588649212180826E-10 -3.0353064630617155E-06
v 3.179452657699585 1.588649212180826E-10 -3.0353064630617155E-06
v -3.17946457862854 7.3540105819702148 -3.0353064630617155E-06
v 3.179452657699585 7.3540105819702148 -3.0353064630617155E-06
v -3.17946457862854 7.3540105819702148 -3.0353064630617155E-06
v 3.179452657699585 7.3540105819702148 -3.0353064630617155E-06
v -3.17946457862854 12.932726860046387 12.321270942687988
v 3.179452657699585 12.932726860046387 12.321270942687988
v -3.17946457862854 12.932726860046387 12.321270942687988
v -3.17946457862854 5.5787158012390137 12.321270942687988
v -3.17946457862854 1.588649212180826E-10 -3.0353064630617155E-06
v -3.17946457862854 7.3540105819702148 -3.0353064630617155E-06
v 3.179452657699585 12.932726860046387 12.321270942687988
v 3.179452657699585 5.5787158012390137 12.321270942687988
v 3.179452657699585 1.588649212180826E-10 -3.0353064630617155E-06
v 3.179452657699585 7.3540105819702148 -3.0353064630617155E-06
vt 0 0
vt 0 0.6025581955909729
vt 0.17610694468021393 0
vt 0.17610694468021393 0.6025581955909729
vt 0.17610694468021393 0
vt 0.17610694468021393 0.6025581955909729
vt 0.5 0
vt 0.5 0.6025581955909729
vt 0.5 0
vt 0.5 0.6025581955909729
vt 0.67610692977905273 0
vt 0.67610692977905273 0.6025581955909729
vt 0.67610692977905273 0
vt 0.67610692977905273 0.6025581955909729
vt 1 0
vt 1 0.6025581955909729
vt 0 1
vt 0.17610694468021393 1
vt 0.30970081686973572 0.60255879163742065
vt 0.1335938572883606 0.60255879163742065
vt 0.69029921293258667 0.60255879163742065
vt 0.8664061427116394 0.60255879163742065
vt 1 1
vt 0.82389307022094727 1
vn -1.4554719030002161E-07 0 1
vn -1.4554719030002161E-07 0 1
vn -1.4554719030002161E-07 0 1
vn -1.4554719030002161E-07 0 1
vn -6.0032810722532304E-08 -0.91097438335418701 0.41246289014816284
vn -6.0032810722532304E-08 -0.91097438335418701 0.41246289014816284
vn -6.0032810722532304E-08 -0.91097438335418701 0.41246289014816284
vn -6.0032810722532304E-08 -0.91097438335418701 0.41246289014816284
vn 1.4554719030002161E-07 0 -1
vn 1.4554719030002161E-07 0 -1
vn 1.4554719030002161E-07 0 -1
vn 1.4554719030002161E-07 0 -1
vn 6.0032810722532304E-08 0.91097438335418701 -0.41246289014816284
vn 6.0032810722532304E-08 0.91097438335418701 -0.41246289014816284
vn 6.0032810722532304E-08 0.91097438335418701 -0.41246289014816284
vn 6.0032810722532304E-08 0.91097438335418701 -0.41246289014816284
vn -1 0 -1.4554719030002161E-07
vn -1 0 -1.4554719030002161E-07
vn -1 0 -1.4554719030002161E-07
vn -1 0 -1.4554719030002161E-07
vn 1 0 1.4554719030002161E-07
vn 1 0 1.4554719030002161E-07
vn 1 0 1.4554719030002161E-07
vn 1 0 1.4554719030002161E-07
f 74/74/74 73/73/73 76/76/76 75/75/75
f 80/80/80 77/77/77 78/78/78 79/79/79
f 57/57/57 59/59/59 60/60/60 58/58/58
f 61/61/61 63/63/63 64/64/64 62/62/62
f 65/65/65 67/67/67 68/68/68 66/66/66
f 69/69/69 71/71/71 72/72/72 70/70/70
