# Rhino

mtllib Funicular.mtl
g Platform
o object_1
usemtl diffuse_0
v -17.433858871459961 11.645041465759277 38.015350341796875
v -6.5078339576721191 11.645041465759277 38.015350341796875
v -17.433828353881836 2.0596189498901367 16.844778060913086
v -6.5078339576721191 2.0596189498901367 16.844778060913086
v -10.149832725524902 11.645041465759277 38.015350341796875
v -13.791831016540527 11.645041465759277 38.015350341796875
v -17.433858871459961 8.4499006271362305 30.958494186401367
v -17.433828353881836 5.2547597885131836 23.901632308959961
v -13.791831016540527 2.0596189498901367 16.844778060913086
v -10.149832725524902 2.0596189498901367 16.844778060913086
v -6.5078339576721191 5.2547597885131836 23.901632308959961
v -6.5078339576721191 8.4499006271362305 30.958494186401367
v -17.433858871459961 13.336907386779785 38.015350341796875
v -17.433828353881836 2.0596189498901367 16.844778060913086
v -17.433858871459961 11.645041465759277 38.015350341796875
v -17.433858871459961 8.4499006271362305 30.958494186401367
v -17.433828353881836 5.2547597885131836 23.901632308959961
v -17.433828353881836 3.7514846324920654 16.844778060913086
v -17.433828353881836 6.9466252326965332 23.901632308959961
v -17.433858871459961 10.141766548156738 30.958494186401367
v -17.433858871459961 13.336907386779785 38.015350341796875
v -6.5078339576721191 13.336907386779785 38.015350341796875
v -17.433858871459961 11.645041465759277 38.015350341796875
v -6.5078339576721191 11.645041465759277 38.015350341796875
v -13.791831016540527 11.645041465759277 38.015350341796875
v -10.149832725524902 11.645041465759277 38.015350341796875
v -10.149832725524902 13.336907386779785 38.015350341796875
v -13.791831016540527 13.336907386779785 38.015350341796875
v -17.433828353881836 2.0596189498901367 16.844778060913086
v -6.5078339576721191 2.0596189498901367 16.844778060913086
v -17.433828353881836 3.7514846324920654 16.844778060913086
v -10.149832725524902 2.0596189498901367 16.844778060913086
v -13.791831016540527 2.0596189498901367 16.844778060913086
v -6.5078339576721191 3.7514846324920654 16.844778060913086
v -13.791831016540527 3.7514846324920654 16.844778060913086
v -10.149832725524902 3.7514846324920654 16.844778060913086
v -6.5078339576721191 13.336907386779785 38.015350341796875
v -6.5078339576721191 2.0596189498901367 16.844778060913086
v -6.5078339576721191 11.645041465759277 38.015350341796875
v -6.5078339576721191 8.4499006271362305 30.958494186401367
v -6.5078339576721191 5.2547597885131836 23.901632308959961
v -6.5078339576721191 3.7514846324920654 16.844778060913086
v -6.5078339576721191 6.9466252326965332 23.901632308959961
v -6.5078339576721191 10.141766548156738 30.958494186401367
v -17.433858871459961 13.336907386779785 38.015350341796875
v -6.5078339576721191 3.7514846324920654 16.844778060913086
v -13.791831016540527 13.336907386779785 38.015350341796875
v -10.149832725524902 13.336907386779785 38.015350341796875
v -6.5078339576721191 13.336907386779785 38.015350341796875
v -10.149832725524902 3.7514846324920654 16.844778060913086
v -13.791831016540527 3.7514846324920654 16.844778060913086
v -17.433828353881836 3.7514846324920654 16.844778060913086
v -17.433828353881836 6.9466252326965332 23.901632308959961
v -17.433858871459961 10.141766548156738 30.958494186401367
v -6.5078339576721191 10.141766548156738 30.958494186401367
v -6.5078339576721191 6.9466252326965332 23.901632308959961
vt 0.99853515625 0
vt 0.6920543909072876 0
vt 0.99853515625 0.65499657392501831
vt 0.6920543909072876 0.65499657392501831
vt 0.79421466588973999 0
vt 0.89637488126754761 0
vt 0.99853515625 0.2183322012424469
vt 0.99853515625 0.4366644024848938
vt 0.89637488126754761 0.65499657392501831
vt 0.79421466588973999 0.65499657392501831
vt 0.6920543909072876 0.4366644024848938
vt 0.6920543909072876 0.2183322012424469
vt 0.09536927193403244 0.94217365980148315
vt 0.6905895471572876 0.62579208612442017
vt 0.09536927193403244 0.89470881223678589
vt 0.29377603530883789 0.80506986379623413
vt 0.49218282103538513 0.71543097496032715
vt 0.6905895471572876 0.67325699329376221
vt 0.49218282103538513 0.76289588212966919
vt 0.29377603530883789 0.85253477096557617
vt 0 0.30794566869735718
vt 0 0.61589127779006958
vt 0.04621979221701622 0.30794566869735718
vt 0.04621979221701622 0.61589127779006958
vt 0.04621979221701622 0.41059419512748718
vt 0.04621979221701622 0.51324272155761719
vt 0 0.51324272155761719
vt 0 0.41059419512748718
vt 0.04768463596701622 0.30794566869735718
vt 0.04768463596701622 0.61589127779006958
vt 0.09390442818403244 0.30794566869735718
vt 0.04768463596701622 0.51324272155761719
vt 0.04768463596701622 0.41059419512748718
vt 0.09390442818403244 0.61589127779006958
vt 0.09390442818403244 0.41059419512748718
vt 0.09390442818403244 0.51324272155761719
vt 0.09536927193403244 0.62432724237442017
vt 0.6905895471572876 0.30794566869735718
vt 0.09536927193403244 0.5768623948097229
vt 0.29377603530883789 0.48722347617149353
vt 0.49218282103538513 0.39758455753326416
vt 0.6905895471572876 0.35541054606437683
vt 0.49218282103538513 0.44504943490028381
vt 0.29377603530883789 0.53468835353851318
vt 0.65499663352966309 0
vt 0 0.30648082494735718
vt 0.65499663352966309 0.1021602526307106
vt 0.65499663352966309 0.2043205052614212
vt 0.65499663352966309 0.30648073554039001
vt 0 0.20432057976722717
vt 0 0.10216033458709717
vt 0 8.6432734747177165E-08
vt 0.2183322012424469 5.7621821980546883E-08
vt 0.4366644024848938 2.8810910990273442E-08
vt 0.43666443228721619 0.3064807653427124
vt 0.21833224594593048 0.30648079514503479
vn -6.0032810722532304E-08 -0.91097438335418701 0.41246289014816284
vn -6.0032810722532304E-08 -0.91097438335418701 0.41246289014816284
vn -6.0032810722532304E-08 -0.91097438335418701 0.41246289014816284
vn -6.0032810722532304E-08 -0.91097438335418701 0.41246289014816284
vn -6.0032810722532304E-08 -0.91097438335418701 0.41246289014816284
vn -6.0032810722532304E-08 -0.91097438335418701 0.41246289014816284
vn -6.0032810722532304E-08 -0.91097438335418701 0.41246289014816284
vn -6.0032810722532304E-08 -0.91097438335418701 0.41246289014816284
vn -6.0032810722532304E-08 -0.91097438335418701 0.41246289014816284
vn -6.0032810722532304E-08 -0.91097438335418701 0.41246289014816284
vn -6.0032810722532304E-08 -0.91097438335418701 0.41246289014816284
vn -6.0032810722532304E-08 -0.91097438335418701 0.41246289014816284
vn -1 0 -1.4554719030002161E-07
vn -1 0 -1.4554719030002161E-07
vn -1 0 -1.4554719030002161E-07
vn -1 0 -1.4554719030002161E-07
vn -1 0 -1.4554719030002161E-07
vn -1 0 -1.4554719030002161E-07
vn -1 0 -1.4554719030002161E-07
vn -1 0 -1.4554719030002161E-07
vn -1.4554719030002161E-07 0 1
vn -1.4554719030002161E-07 0 1
vn -1.4554719030002161E-07 0 1
vn -1.4554719030002161E-07 0 1
vn -1.4554719030002161E-07 0 1
vn -1.4554719030002161E-07 0 1
vn -1.4554719030002161E-07 0 1
vn -1.4554719030002161E-07 0 1
vn 1.4554719030002161E-07 0 -1
vn 1.4554719030002161E-07 0 -1
vn 1.455471760891669E-07 0 -1
vn 1.4554719030002161E-07 0 -1
vn 1.4554719030002161E-07 0 -1
vn 1.4554719030002161E-07 0 -1
vn 1.4554719030002161E-07 0 -1
vn 1.4554719030002161E-07 0 -1
vn 1 0 1.4554719030002161E-07
vn 1 0 1.4554719030002161E-07
vn 1 0 1.4554719030002161E-07
vn 1 0 1.4554719030002161E-07
vn 1 0 1.4554719030002161E-07
vn 1 0 1.4554719030002161E-07
vn 1 0 1.4554719030002161E-07
vn 1 0 1.4554719030002161E-07
vn 6.0032810722532304E-08 0.91097438335418701 -0.41246289014816284
vn 6.0032810722532304E-08 0.91097438335418701 -0.41246289014816284
vn 6.0032810722532304E-08 0.91097438335418701 -0.41246289014816284
vn 6.0032810722532304E-08 0.91097438335418701 -0.41246289014816284
vn 6.0032810722532304E-08 0.91097438335418701 -0.41246289014816284
vn 6.0032810722532304E-08 0.91097438335418701 -0.41246289014816284
vn 6.0032810722532304E-08 0.91097438335418701 -0.41246289014816284
vn 6.0032810722532304E-08 0.91097438335418701 -0.41246289014816284
vn 6.0032810722532304E-08 0.91097438335418701 -0.41246289014816284
vn 6.0032810722532304E-08 0.91097438335418701 -0.41246289014816284
vn 6.0032810722532304E-08 0.91097438335418701 -0.41246289014816284
vn 6.0032810722532304E-08 0.91097438335418701 -0.41246289014816284
f 6/6/6 1/1/1 7/7/7 8/8/8 3/3/3 9/9/9 10/10/10 4/4/4 11/11/11 12/12/12 2/2/2 5/5/5
f 16/16/16 15/15/15 13/13/13 20/20/20 19/19/19 18/18/18 14/14/14 17/17/17
f 28/28/28 21/21/21 23/23/23 25/25/25 26/26/26 24/24/24 22/22/22 27/27/27
f 33/33/33 29/29/29 31/31/31 35/35/35 36/36/36 34/34/34 30/30/30 32/32/32
f 39/39/39 40/40/40 41/41/41 38/38/38 42/42/42 43/43/43 44/44/44 37/37/37
f 54/54/54 45/45/45 47/47/47 48/48/48 49/49/49 55/55/55 56/56/56 46/46/46 50/50/50 51/51/51 52/52/52 53/53/53
g Funicular_1
o object_2
usemtl diffuse_0
v -17.433858871459961 22.221179962158203 38.015350341796875
v -6.5078339576721191 22.221179962158203 38.015350341796875
v -17.433858871459961 9.5854225158691406 38.015350341796875
v -6.5078339576721191 9.5854225158691406 38.015350341796875
v -17.433858871459961 9.5854225158691406 38.015350341796875
v -6.5078339576721191 9.5854225158691406 38.015350341796875
v -17.433828353881836 -4.836527978113736E-07 16.844778060913086
v -6.5078339576721191 -4.836527978113736E-07 16.844778060913086
v -17.433828353881836 -4.836527978113736E-07 16.844778060913086
v -6.5078339576721191 -4.836527978113736E-07 16.844778060913086
v -17.433828353881836 12.635756492614746 16.844778060913086
v -6.5078339576721191 12.635756492614746 16.844778060913086
v -17.433828353881836 12.635756492614746 16.844778060913086
v -6.5078339576721191 12.635756492614746 16.844778060913086
v -17.433858871459961 22.221179962158203 38.015350341796875
v -6.5078339576721191 22.221179962158203 38.015350341796875
v -17.433858871459961 22.221179962158203 38.015350341796875
v -17.433858871459961 9.5854225158691406 38.015350341796875
v -17.433828353881836 -4.836527978113736E-07 16.844778060913086
v -17.433828353881836 12.635756492614746 16.844778060913086
v -6.5078339576721191 22.221179962158203 38.015350341796875
v -6.5078339576721191 9.5854225158691406 38.015350341796875
v -6.5078339576721191 -4.836527978113736E-07 16.844778060913086
v -6.5078339576721191 12.635756492614746 16.844778060913086
vt 0 0
vt 0 0.6025581955909729
vt 0.17610694468021393 0
vt 0.17610694468021393 0.6025581955909729
vt 0.17610694468021393 0
vt 0.17610694468021393 0.6025581955909729
vt 0.5 0
vt 0.5 0.6025581955909729
vt 0.5 0
vt 0.5 0.6025581955909729
vt 0.67610692977905273 0
vt 0.67610692977905273 0.6025581955909729
vt 0.67610692977905273 0
vt 0.67610692977905273 0.6025581955909729
vt 1 0
vt 1 0.6025581955909729
vt 0 1
vt 0.17610694468021393 1
vt 0.30970081686973572 0.60255879163742065
vt 0.1335938572883606 0.60255879163742065
vt 0.69029921293258667 0.60255879163742065
vt 0.8664061427116394 0.60255879163742065
vt 1 1
vt 0.82389307022094727 1
vn -1.4554719030002161E-07 0 1
vn -1.4554719030002161E-07 0 1
vn -1.4554719030002161E-07 0 1
vn -1.4554719030002161E-07 0 1
vn -6.0032810722532304E-08 -0.91097438335418701 0.41246289014816284
vn -6.0032810722532304E-08 -0.91097438335418701 0.41246289014816284
vn -6.0032810722532304E-08 -0.91097438335418701 0.41246289014816284
vn -6.0032810722532304E-08 -0.91097438335418701 0.41246289014816284
vn 1.4554719030002161E-07 0 -1
vn 1.4554719030002161E-07 0 -1
vn 1.4554719030002161E-07 0 -1
vn 1.4554719030002161E-07 0 -1
vn 6.0032810722532304E-08 0.91097438335418701 -0.41246289014816284
vn 6.0032810722532304E-08 0.91097438335418701 -0.41246289014816284
vn 6.0032810722532304E-08 0.91097438335418701 -0.41246289014816284
vn 6.0032810722532304E-08 0.91097438335418701 -0.41246289014816284
vn -1 0 -1.4554719030002161E-07
vn -1 0 -1.4554719030002161E-07
vn -1 0 -1.4554719030002161E-07
vn -1 0 -1.4554719030002161E-07
vn 1 0 1.4554719030002161E-07
vn 1 0 1.4554719030002161E-07
vn 1 0 1.4554719030002161E-07
vn 1 0 1.4554719030002161E-07
f 74/74/74 73/73/73 76/76/76 75/75/75
f 80/80/80 77/77/77 78/78/78 79/79/79
f 57/57/57 59/59/59 60/60/60 58/58/58
f 61/61/61 63/63/63 64/64/64 62/62/62
f 65/65/65 67/67/67 68/68/68 66/66/66
f 69/69/69 71/71/71 72/72/72 70/70/70
